<?xml version="1.0" standalone="no"?><!DOCTYPE svg PUBLIC "-//W3C//DTD SVG 1.1//EN" "http://www.w3.org/Graphics/SVG/1.1/DTD/svg11.dtd"><svg t="1627998046099" class="icon" viewBox="0 0 1024 1024" version="1.1" xmlns="http://www.w3.org/2000/svg" p-id="3317" xmlns:xlink="http://www.w3.org/1999/xlink" width="200" height="200"><defs><style type="text/css"></style></defs><path d="M557.714286 804.571429c0-25.161143-20.553143-45.714286-45.714286-45.714286s-45.714286 20.553143-45.714286 45.714286 20.553143 45.714286 45.714286 45.714285 45.714286-20.553143 45.714286-45.714285z m118.857143-91.428572v-402.285714c0-9.728-8.557714-18.285714-18.285715-18.285714H365.714286c-9.728 0-18.285714 8.557714-18.285715 18.285714v402.285714c0 9.728 8.557714 18.285714 18.285715 18.285714h292.571428c9.728 0 18.285714-8.557714 18.285715-18.285714z m-109.714286-484.571428A8.996571 8.996571 0 0 0 557.714286 219.428571h-91.428572c-5.156571 0-9.142857 3.986286-9.142857 9.142858s3.986286 9.142857 9.142857 9.142857h91.428572c5.156571 0 9.142857-3.986286 9.142857-9.142857zM731.428571 219.428571v585.142858c0 40.009143-33.133714 73.142857-73.142857 73.142857H365.714286c-40.009143 0-73.142857-33.133714-73.142857-73.142857V219.428571c0-40.009143 33.133714-73.142857 73.142857-73.142857h292.571428c40.009143 0 73.142857 33.133714 73.142857 73.142857z" fill="#ffffff" p-id="3318"></path></svg>