<?xml version="1.0" standalone="no"?><!DOCTYPE svg PUBLIC "-//W3C//DTD SVG 1.1//EN" "http://www.w3.org/Graphics/SVG/1.1/DTD/svg11.dtd"><svg t="1626831236586" class="icon" viewBox="0 0 1024 1024" version="1.1" xmlns="http://www.w3.org/2000/svg" p-id="9008" xmlns:xlink="http://www.w3.org/1999/xlink" width="200" height="200"><defs><style type="text/css"></style></defs><path d="M301.5168 495.6672c-55.1424 0-108.3392-23.1424-145.9712-63.4368C117.4016 391.3216 98.5088 337.92 102.3488 281.856c6.8096-98.7136 86.3744-178.2784 185.088-185.088 56.064-3.84 109.4144 15.0016 150.3232 53.1968 40.3456 37.632 63.4368 90.8288 63.4368 145.9712v125.9008c0 37.4272-29.2864 67.84-66.6112 69.2224l-36.5568 1.4848c-34.9184 1.536-71.0656 3.1232-96.512 3.1232z m0.1024-348.16c-3.5328 0-7.1168 0.1024-10.6496 0.3584-73.3696 5.0688-132.4544 64.2048-137.5232 137.5232-2.8672 41.728 11.1616 81.4592 39.5264 111.872 28.416 30.4128 66.9696 47.2064 108.544 47.2064 24.32 0 59.904-1.536 94.3104-2.9696 12.7488-0.5632 25.2416-1.0752 36.7616-1.536 9.728-0.3584 17.3568-8.2944 17.3568-18.0736V295.9872c0-41.6256-16.7424-80.1792-47.2064-108.544-27.6992-25.9584-63.3344-39.936-101.12-39.936zM301.7216 927.488c-4.7616 0-9.5232-0.1536-14.2848-0.512-98.7136-6.8096-178.2784-86.3744-185.088-185.088-3.84-56.064 15.0016-109.4144 53.1968-150.3232 37.632-40.3456 90.8288-63.4368 145.9712-63.4368 25.3952 0 61.5424 1.536 96.512 3.0208 12.6464 0.5632 25.0368 1.0752 36.5568 1.4848 37.376 1.4336 66.6112 31.8464 66.6112 69.2224v125.9008c0 55.1424-23.1424 108.3392-63.4368 145.9712-37.376 34.9696-85.248 53.76-136.0384 53.76z m-0.2048-348.16c-41.6256 0-80.1792 16.7424-108.544 47.2064-28.3648 30.4128-42.4448 70.144-39.5264 111.872 5.0688 73.3184 64.2048 132.4544 137.5232 137.5232 41.8304 2.8672 81.4592-11.1616 111.872-39.5264 30.4128-28.416 47.2064-66.9696 47.2064-108.544v-125.9008c0-9.7792-7.6288-17.7152-17.3568-18.0736-11.5712-0.4608-24.064-0.9728-36.7616-1.536-34.4576-1.4848-70.0416-3.0208-94.4128-3.0208z" fill="#2c2c2c" p-id="9009"></path><path d="M887.6032 403.7632a25.088 25.088 0 0 1-12.0832-3.072c-12.4416-6.7072-17.152-22.2208-10.4448-34.6624 5.888-10.9568 10.3424-22.6304 13.312-34.7136a25.56416 25.56416 0 0 1 30.9248-18.7904c13.7216 3.3792 22.1696 17.2032 18.7904 30.9248-3.9936 16.2816-10.0352 32.0512-17.92 46.7968a25.5232 25.5232 0 0 1-22.5792 13.5168z" fill="#2c2c2c" p-id="9010"></path><path d="M734.1568 495.6672c-25.3952 0-61.5424-1.536-96.512-3.0208-12.6464-0.5632-25.0368-1.0752-36.5568-1.4848-37.376-1.4336-66.6112-31.8464-66.6112-69.2224v-125.952c0-55.1424 23.1424-108.3392 63.4368-145.9712 40.9088-38.1952 94.3104-57.0368 150.3232-53.1968 75.1104 5.1712 142.2336 53.9136 170.9056 124.16 5.3248 13.1072-0.9216 28.0576-14.0288 33.3824a25.63072 25.63072 0 0 1-33.3824-14.0288c-21.3504-52.2752-71.2192-88.576-127.0272-92.416-41.8304-2.9184-81.4592 11.1616-111.872 39.5264-30.4128 28.416-47.2064 66.9696-47.2064 108.544V421.888c0 9.7792 7.6288 17.7152 17.3568 18.0736 11.5712 0.4608 24.064 0.9728 36.7616 1.536 34.4064 1.4848 69.9904 2.9696 94.3104 2.9696 27.648 0 54.6304-7.6288 78.0288-22.1184a25.58464 25.58464 0 0 1 35.2256 8.2944c7.424 12.032 3.7376 27.8016-8.2944 35.2256a198.9632 198.9632 0 0 1-104.8576 29.7984zM733.952 927.488c-50.7904 0-98.6112-18.7904-136.0384-53.7088-40.3456-37.632-63.4368-90.8288-63.4368-145.9712v-125.9008c0-37.376 29.2864-67.84 66.6112-69.2224l36.5568-1.4848c34.9696-1.4848 71.0656-3.0208 96.512-3.0208 55.1424 0 108.3392 23.1424 145.9712 63.4368 38.1952 40.9088 57.0368 94.2592 53.1968 150.3232-6.8096 98.7136-86.3744 178.2784-185.088 185.088-4.7616 0.3072-9.5232 0.4608-14.2848 0.4608z m0.2048-348.16c-24.32 0-59.904 1.536-94.3104 2.9696-12.7488 0.5632-25.2416 1.0752-36.7616 1.536-9.728 0.3584-17.3568 8.2944-17.3568 18.0736v125.9008c0 41.6256 16.7424 80.1792 47.2064 108.544 30.4128 28.3648 70.144 42.3936 111.872 39.5264 73.3184-5.0688 132.4544-64.1536 137.5232-137.5232 2.8672-41.728-11.1616-81.4592-39.5264-111.872-28.4672-30.3616-67.0208-47.1552-108.6464-47.1552z" fill="#2c2c2c" p-id="9011"></path></svg>