<?xml version="1.0" standalone="no"?><!DOCTYPE svg PUBLIC "-//W3C//DTD SVG 1.1//EN" "http://www.w3.org/Graphics/SVG/1.1/DTD/svg11.dtd"><svg t="1626831184315" class="icon" viewBox="0 0 1024 1024" version="1.1" xmlns="http://www.w3.org/2000/svg" p-id="8016" xmlns:xlink="http://www.w3.org/1999/xlink" width="200" height="200"><defs><style type="text/css"></style></defs><path d="M811.9296 605.7984c5.0688 6.144 12.3904 9.2672 19.712 9.2672 5.7344 0 11.52-1.9456 16.2816-5.888a25.58976 25.58976 0 0 0 3.3792-36.0448c-10.4448-12.5952-21.8624-24.576-33.9968-35.584-10.496-9.472-26.6752-8.704-36.1472 1.792-9.472 10.496-8.704 26.6752 1.792 36.1472a294.7072 294.7072 0 0 1 28.9792 30.3104z" fill="#FF5777" p-id="8017"></path><path d="M903.5264 659.456a25.6 25.6 0 0 0-47.2576 19.712c14.7968 35.4304 22.272 73.1136 22.272 111.872v24.576c0 42.3424-34.4576 76.8-76.8 76.8H222.208c-42.3424 0-76.8-34.4576-76.8-76.8v-24.576c0-137.6768 95.744-255.5392 229.2224-284.2624 33.8944 23.552 72.4992 37.7856 113.2544 42.0352l1.7408 0.1536c3.1744 0.3072 6.3488 0.5632 9.5232 0.7168l2.7648 0.1536c3.7888 0.1536 7.6288 0.3072 11.4176 0.3072s7.6288-0.1024 11.4176-0.3072l2.816-0.1536c3.1744-0.2048 6.3488-0.4096 9.5232-0.7168l1.7408-0.1536c40.4992-4.1984 78.8992-18.2784 112.5888-41.5232a289.64352 289.64352 0 0 1 83.5584 33.024c12.1856 7.168 27.8528 3.1232 35.072-9.0624 7.168-12.1856 3.1232-27.8528-9.0624-35.072-20.48-12.032-41.984-21.8112-64.3072-29.3376 37.6832-42.9568 60.5696-99.1232 60.5696-160.6144 0-134.5024-109.4144-243.9168-243.9168-243.9168S269.5168 171.7248 269.5168 306.2272c0 61.1328 22.6304 116.992 59.904 159.8464-138.752 45.3632-235.2128 175.1552-235.2128 324.9664v24.576c0 70.6048 57.3952 128 128 128h579.584c70.6048 0 128-57.3952 128-128v-24.576c0-45.568-8.8576-89.856-26.2656-131.584zM513.4336 113.5104c106.24 0 192.7168 86.4256 192.7168 192.7168 0 96.256-70.912 176.2304-163.2768 190.464-0.1536 0-0.256 0.0512-0.4096 0.0512-2.7648 0.4096-5.5296 0.768-8.3456 1.0752-0.6656 0.0512-1.3824 0.1536-2.048 0.2048-2.3552 0.2048-4.7104 0.4096-7.1168 0.5632l-2.3552 0.1536c-3.0208 0.1536-6.0928 0.256-9.1648 0.256-3.072 0-6.144-0.1024-9.1648-0.256l-2.304-0.1536c-2.4064-0.1536-4.7616-0.3072-7.168-0.5632-0.6656-0.0512-1.3312-0.1536-1.9968-0.2048-2.816-0.3072-5.5808-0.6656-8.3456-1.0752-0.1536 0-0.3072-0.0512-0.4608-0.0512-92.3136-14.2336-163.2768-94.208-163.2768-190.464 0-106.2912 86.4256-192.7168 192.7168-192.7168z" fill="#FF5777" p-id="8018"></path><path d="M667.904 818.5344h-313.856c-14.1312 0-25.6-11.4688-25.6-25.6s11.4688-25.6 25.6-25.6h313.856c14.1312 0 25.6 11.4688 25.6 25.6s-11.4176 25.6-25.6 25.6z" fill="#FF5777" p-id="8019"></path></svg>